<svg width="161" height="21" viewBox="0 0 161 21" fill="none" xmlns="http://www.w3.org/2000/svg">
<path d="M0.551758 20.0002V0.150391H7.86627L15.3439 16.3837H16.2684L15.7246 16.8732V0.150391H19.9121V20.0002H12.5432L5.06555 3.76686H4.14103L4.68486 3.27741V20.0002H0.551758Z" fill="#060714"/>
<path d="M24.5975 20.0002V0.150391H29.0569V20.0002H24.5975ZM28.513 12.0059V8.30784H36.181V12.0059H28.513ZM28.513 3.84843V0.150391H36.5073V3.84843H28.513Z" fill="#060714"/>
<path d="M44.2214 20.0002V3.49494H48.6808V20.0002H44.2214ZM38.6471 4.03877V0.150391H54.2822V4.03877H38.6471Z" fill="#060714"/>
<path d="M63.2497 20.0002V0.150391H69.395L73.936 11.2989H74.4526L78.9392 0.150391H85.1933V20.0002H80.7883V3.05988L81.4137 3.11426L76.1657 15.9758H71.9238L66.6487 3.11426L67.3285 3.05988V20.0002H63.2497Z" fill="#060714"/>
<path d="M98.6268 20.0002V15.5952H97.8927V10.8095C97.8927 10.0481 97.7114 9.47707 97.3488 9.09639C96.9863 8.71571 96.4062 8.52537 95.6086 8.52537C95.2098 8.52537 94.6841 8.53443 94.0315 8.55256C93.3789 8.57069 92.7082 8.59788 92.0193 8.63414C91.3305 8.67039 90.7051 8.70665 90.1431 8.7429V5.07205C90.5601 5.0358 91.0495 4.99954 91.6115 4.96328C92.1734 4.92703 92.7535 4.89984 93.3517 4.88171C93.9499 4.86358 94.5119 4.85452 95.0376 4.85452C96.5603 4.85452 97.8383 5.07205 98.8716 5.50711C99.923 5.94218 100.721 6.60384 101.264 7.49209C101.808 8.36222 102.08 9.48613 102.08 10.8638V20.0002H98.6268ZM93.8683 20.3809C92.7988 20.3809 91.8562 20.1905 91.0404 19.8098C90.2428 19.4292 89.6174 18.8853 89.1642 18.1783C88.711 17.4532 88.4844 16.5922 88.4844 15.5952C88.4844 14.5075 88.7654 13.6192 89.3274 12.9304C89.8893 12.2234 90.6779 11.7068 91.693 11.3805C92.7082 11.036 93.8774 10.8638 95.2007 10.8638H98.3821V13.2839H95.1735C94.4122 13.2839 93.823 13.4742 93.4061 13.8549C93.0073 14.2175 92.8079 14.716 92.8079 15.3504C92.8079 15.9486 93.0073 16.4381 93.4061 16.8188C93.823 17.1813 94.4122 17.3626 95.1735 17.3626C95.663 17.3626 96.098 17.281 96.4787 17.1179C96.8775 16.9366 97.2038 16.6375 97.4576 16.2206C97.7114 15.8036 97.8564 15.2235 97.8927 14.4803L98.926 15.568C98.8353 16.6012 98.5815 17.4714 98.1646 18.1783C97.7658 18.8853 97.2038 19.4292 96.4787 19.8098C95.7718 20.1905 94.9016 20.3809 93.8683 20.3809Z" fill="#060714"/>
<path d="M105.998 20.0002V5.09924H109.451V11.4892H109.37C109.37 9.38643 109.814 7.76401 110.702 6.62196C111.609 5.47992 112.914 4.9089 114.618 4.9089H115.189V8.66133H114.101C112.905 8.66133 111.98 8.98762 111.328 9.64022C110.675 10.2747 110.349 11.1992 110.349 12.4138V20.0002H105.998Z" fill="#060714"/>
<path d="M128.165 20.0002L123.461 13.0392H121.368L127.431 5.09924H131.999L126.289 12.4953L126.344 10.3744L133.06 20.0002H128.165ZM117.669 20.0002V0.150391H122.02V20.0002H117.669Z" fill="#060714"/>
<path d="M141.503 20.5168C140.234 20.5168 139.111 20.2993 138.132 19.8642C137.171 19.4292 136.364 18.8491 135.712 18.124C135.077 17.3807 134.588 16.5559 134.243 15.6495C133.917 14.725 133.754 13.7824 133.754 12.8216V12.2778C133.754 11.2808 133.917 10.3291 134.243 9.42269C134.588 8.49818 135.077 7.67337 135.712 6.94826C136.346 6.22316 137.135 5.65213 138.077 5.2352C139.038 4.80013 140.126 4.5826 141.34 4.5826C142.935 4.5826 144.277 4.94516 145.365 5.67026C146.47 6.37724 147.313 7.31081 147.893 8.47099C148.473 9.61303 148.764 10.8638 148.764 12.2234V13.6918H135.576V11.2173H146.126L144.712 12.3594C144.712 11.4711 144.585 10.7098 144.331 10.0753C144.077 9.44081 143.697 8.96043 143.189 8.63414C142.7 8.28971 142.083 8.1175 141.34 8.1175C140.579 8.1175 139.935 8.28971 139.41 8.63414C138.884 8.97856 138.485 9.48614 138.213 10.1569C137.941 10.8095 137.805 11.6161 137.805 12.5769C137.805 13.4652 137.932 14.2446 138.186 14.9154C138.44 15.568 138.839 16.0755 139.382 16.4381C139.926 16.8006 140.633 16.9819 141.503 16.9819C142.301 16.9819 142.954 16.8278 143.461 16.5197C143.969 16.2115 144.313 15.8308 144.494 15.3776H148.492C148.274 16.3746 147.848 17.2629 147.214 18.0424C146.579 18.8219 145.782 19.4292 144.821 19.8642C143.86 20.2993 142.754 20.5168 141.503 20.5168Z" fill="#060714"/>
<path d="M158.644 20.1905C157.139 20.1905 155.925 20.0092 155 19.6467C154.076 19.266 153.396 18.6406 152.961 17.7705C152.544 16.8822 152.335 15.6858 152.335 14.1812V1.0749H156.387V14.3443C156.387 15.0513 156.568 15.5952 156.931 15.9758C157.311 16.3384 157.846 16.5197 158.535 16.5197H160.737V20.1905H158.644ZM150.078 8.28065V5.09924H160.737V8.28065H150.078Z" fill="#060714"/>
</svg>
